<svg width="495" height="654" viewBox="0 0 495 654" fill="none" xmlns="http://www.w3.org/2000/svg">
<rect x="100.808" y="264.665" width="81" height="81" transform="rotate(-22 100.808 264.665)" fill="white"/>
<rect x="95.8346" y="276.382" width="99" height="63" transform="rotate(-22 95.8346 276.382)" fill="white"/>
<rect x="90.8615" y="288.098" width="117" height="45" transform="rotate(-22 90.8615 288.098)" fill="white"/>
<rect x="85.8882" y="299.814" width="135" height="27" transform="rotate(-22 85.8882 299.814)" fill="white"/>
<rect x="115.727" y="229.517" width="27" height="135" transform="rotate(-22 115.727 229.517)" fill="white"/>
<rect x="120.701" y="217.801" width="9" height="153" transform="rotate(-22 120.701 217.801)" fill="white"/>
<rect x="80.915" y="311.53" width="153" height="9" transform="rotate(-22 80.915 311.53)" fill="white"/>
<rect x="152.477" y="224.376" width="117" height="45" transform="rotate(68 152.477 224.376)" fill="white"/>
<rect x="164.194" y="229.349" width="99" height="63" transform="rotate(68 164.194 229.349)" fill="white"/>
<rect x="124.24" y="274.612" width="45" height="45" transform="rotate(-22 124.24 274.612)" fill="#FF2828"/>
<rect x="119.267" y="286.328" width="63" height="27" transform="rotate(-22 119.267 286.328)" fill="#FF2828"/>
<rect x="129.213" y="262.896" width="27" height="63" transform="rotate(-22 129.213 262.896)" fill="#FF2828"/>
<rect x="114.294" y="298.044" width="81" height="9" transform="rotate(-22 114.294 298.044)" fill="#FF2828"/>
<rect x="134.186" y="251.18" width="9" height="81" transform="rotate(-22 134.186 251.18)" fill="#FF2828"/>
<rect x="147.672" y="284.558" width="9" height="9" transform="rotate(-22 147.672 284.558)" fill="white"/>
<rect x="46.8644" y="131.151" width="81" height="81" transform="rotate(-22 46.8644 131.151)" fill="white"/>
<rect x="41.8912" y="142.867" width="99" height="63" transform="rotate(-22 41.8912 142.867)" fill="white"/>
<rect x="36.9181" y="154.583" width="117" height="45" transform="rotate(-22 36.9181 154.583)" fill="white"/>
<rect x="31.9449" y="166.299" width="135" height="27" transform="rotate(-22 31.9449 166.299)" fill="white"/>
<rect x="61.7841" y="96.0026" width="27" height="135" transform="rotate(-22 61.7841 96.0026)" fill="white"/>
<rect x="66.7573" y="84.2865" width="9" height="153" transform="rotate(-22 66.7573 84.2865)" fill="white"/>
<rect x="26.9717" y="178.015" width="153" height="9" transform="rotate(-22 26.9717 178.015)" fill="white"/>
<rect x="98.5341" y="90.8614" width="117" height="45" transform="rotate(68 98.5341 90.8614)" fill="white"/>
<rect x="110.25" y="95.8346" width="99" height="63" transform="rotate(68 110.25 95.8346)" fill="white"/>
<rect x="70.2967" y="141.097" width="45" height="45" transform="rotate(-22 70.2967 141.097)" fill="#FF2828"/>
<rect x="65.3235" y="152.813" width="63" height="27" transform="rotate(-22 65.3235 152.813)" fill="#FF2828"/>
<rect x="75.2698" y="129.381" width="27" height="63" transform="rotate(-22 75.2698 129.381)" fill="#FF2828"/>
<rect x="60.3503" y="164.53" width="81" height="9" transform="rotate(-22 60.3503 164.53)" fill="#FF2828"/>
<rect x="80.243" y="117.665" width="9" height="81" transform="rotate(-22 80.243 117.665)" fill="#FF2828"/>
<rect x="93.7289" y="151.044" width="9" height="9" transform="rotate(-22 93.7289 151.044)" fill="white"/>
<rect x="154.751" y="398.18" width="81" height="81" transform="rotate(-22 154.751 398.18)" fill="white"/>
<rect x="149.778" y="409.896" width="99" height="63" transform="rotate(-22 149.778 409.896)" fill="white"/>
<rect x="144.805" y="421.612" width="117" height="45" transform="rotate(-22 144.805 421.612)" fill="white"/>
<rect x="139.832" y="433.328" width="135" height="27" transform="rotate(-22 139.832 433.328)" fill="white"/>
<rect x="169.671" y="363.032" width="27" height="135" transform="rotate(-22 169.671 363.032)" fill="white"/>
<rect x="174.644" y="351.315" width="9" height="153" transform="rotate(-22 174.644 351.315)" fill="white"/>
<rect x="134.858" y="445.044" width="153" height="9" transform="rotate(-22 134.858 445.044)" fill="white"/>
<rect x="206.421" y="357.89" width="117" height="45" transform="rotate(68 206.421 357.89)" fill="white"/>
<rect x="218.137" y="362.864" width="99" height="63" transform="rotate(68 218.137 362.864)" fill="white"/>
<rect x="178.183" y="408.126" width="45" height="45" transform="rotate(-22 178.183 408.126)" fill="#FF2828"/>
<rect x="173.21" y="419.842" width="63" height="27" transform="rotate(-22 173.21 419.842)" fill="#FF2828"/>
<rect x="183.157" y="396.41" width="27" height="63" transform="rotate(-22 183.157 396.41)" fill="#FF2828"/>
<rect x="168.237" y="431.559" width="81" height="9" transform="rotate(-22 168.237 431.559)" fill="#FF2828"/>
<rect x="188.13" y="384.694" width="9" height="81" transform="rotate(-22 188.13 384.694)" fill="#FF2828"/>
<rect x="201.616" y="418.073" width="9" height="9" transform="rotate(-22 201.616 418.073)" fill="white"/>
<rect x="234.322" y="210.722" width="81" height="81" transform="rotate(-22 234.322 210.722)" fill="white"/>
<rect x="229.349" y="222.438" width="99" height="63" transform="rotate(-22 229.349 222.438)" fill="white"/>
<rect x="224.376" y="234.154" width="117" height="45" transform="rotate(-22 224.376 234.154)" fill="white"/>
<rect x="219.403" y="245.87" width="135" height="27" transform="rotate(-22 219.403 245.87)" fill="white"/>
<rect x="249.242" y="175.574" width="27" height="135" transform="rotate(-22 249.242 175.574)" fill="white"/>
<rect x="254.215" y="163.858" width="9" height="153" transform="rotate(-22 254.215 163.858)" fill="white"/>
<rect x="214.43" y="257.587" width="153" height="9" transform="rotate(-22 214.43 257.587)" fill="white"/>
<rect x="285.992" y="170.433" width="117" height="45" transform="rotate(68 285.992 170.433)" fill="white"/>
<rect x="297.708" y="175.406" width="99" height="63" transform="rotate(68 297.708 175.406)" fill="white"/>
<rect x="257.754" y="220.668" width="45" height="45" transform="rotate(-22 257.754 220.668)" fill="#FF2828"/>
<rect x="252.781" y="232.385" width="63" height="27" transform="rotate(-22 252.781 232.385)" fill="#FF2828"/>
<rect x="262.728" y="208.952" width="27" height="63" transform="rotate(-22 262.728 208.952)" fill="#FF2828"/>
<rect x="247.808" y="244.101" width="81" height="9" transform="rotate(-22 247.808 244.101)" fill="#FF2828"/>
<rect x="267.701" y="197.236" width="9" height="81" transform="rotate(-22 267.701 197.236)" fill="#FF2828"/>
<rect x="281.187" y="230.615" width="9" height="9" transform="rotate(-22 281.187 230.615)" fill="white"/>
<rect x="180.379" y="77.2076" width="81" height="81" transform="rotate(-22 180.379 77.2076)" fill="white"/>
<rect x="175.406" y="88.9237" width="99" height="63" transform="rotate(-22 175.406 88.9237)" fill="white"/>
<rect x="170.433" y="100.64" width="117" height="45" transform="rotate(-22 170.433 100.64)" fill="white"/>
<rect x="165.459" y="112.356" width="135" height="27" transform="rotate(-22 165.459 112.356)" fill="white"/>
<rect x="195.299" y="42.0592" width="27" height="135" transform="rotate(-22 195.299 42.0592)" fill="white"/>
<rect x="200.272" y="30.3431" width="9" height="153" transform="rotate(-22 200.272 30.3431)" fill="white"/>
<rect x="160.486" y="124.072" width="153" height="9" transform="rotate(-22 160.486 124.072)" fill="white"/>
<rect x="232.049" y="36.9181" width="117" height="45" transform="rotate(68 232.049 36.9181)" fill="white"/>
<rect x="243.765" y="41.8912" width="99" height="63" transform="rotate(68 243.765 41.8912)" fill="white"/>
<rect x="203.811" y="87.154" width="45" height="45" transform="rotate(-22 203.811 87.154)" fill="#FF2828"/>
<rect x="198.838" y="98.8701" width="63" height="27" transform="rotate(-22 198.838 98.8701)" fill="#FF2828"/>
<rect x="208.784" y="75.4379" width="27" height="63" transform="rotate(-22 208.784 75.4379)" fill="#FF2828"/>
<rect x="193.865" y="110.586" width="81" height="9" transform="rotate(-22 193.865 110.586)" fill="#FF2828"/>
<rect x="213.758" y="63.7217" width="9" height="81" transform="rotate(-22 213.758 63.7217)" fill="#FF2828"/>
<rect x="227.243" y="97.1004" width="9" height="9" transform="rotate(-22 227.243 97.1004)" fill="white"/>
<rect x="288.266" y="344.237" width="81" height="81" transform="rotate(-22 288.266 344.237)" fill="white"/>
<rect x="283.292" y="355.953" width="99" height="63" transform="rotate(-22 283.292 355.953)" fill="white"/>
<rect x="278.319" y="367.669" width="117" height="45" transform="rotate(-22 278.319 367.669)" fill="white"/>
<rect x="273.346" y="379.385" width="135" height="27" transform="rotate(-22 273.346 379.385)" fill="white"/>
<rect x="303.185" y="309.088" width="27" height="135" transform="rotate(-22 303.185 309.088)" fill="white"/>
<rect x="308.158" y="297.372" width="9" height="153" transform="rotate(-22 308.158 297.372)" fill="white"/>
<rect x="268.373" y="391.101" width="153" height="9" transform="rotate(-22 268.373 391.101)" fill="white"/>
<rect x="339.935" y="303.947" width="117" height="45" transform="rotate(68 339.935 303.947)" fill="white"/>
<rect x="351.651" y="308.92" width="99" height="63" transform="rotate(68 351.651 308.92)" fill="white"/>
<rect x="311.698" y="354.183" width="45" height="45" transform="rotate(-22 311.698 354.183)" fill="#FF2828"/>
<rect x="306.725" y="365.899" width="63" height="27" transform="rotate(-22 306.725 365.899)" fill="#FF2828"/>
<rect x="316.671" y="342.467" width="27" height="63" transform="rotate(-22 316.671 342.467)" fill="#FF2828"/>
<rect x="301.751" y="377.615" width="81" height="9" transform="rotate(-22 301.751 377.615)" fill="#FF2828"/>
<rect x="321.644" y="330.751" width="9" height="81" transform="rotate(-22 321.644 330.751)" fill="#FF2828"/>
<rect x="335.13" y="364.129" width="9" height="9" transform="rotate(-22 335.13 364.129)" fill="white"/>
<rect x="342.209" y="477.751" width="81" height="81" transform="rotate(-22 342.209 477.751)" fill="white"/>
<rect x="337.236" y="489.467" width="99" height="63" transform="rotate(-22 337.236 489.467)" fill="white"/>
<rect x="332.263" y="501.183" width="117" height="45" transform="rotate(-22 332.263 501.183)" fill="white"/>
<rect x="327.289" y="512.899" width="135" height="27" transform="rotate(-22 327.289 512.899)" fill="white"/>
<rect x="357.129" y="442.603" width="27" height="135" transform="rotate(-22 357.129 442.603)" fill="white"/>
<rect x="362.102" y="430.887" width="9" height="153" transform="rotate(-22 362.102 430.887)" fill="white"/>
<rect x="322.316" y="524.615" width="153" height="9" transform="rotate(-22 322.316 524.615)" fill="white"/>
<rect x="393.879" y="437.461" width="117" height="45" transform="rotate(68 393.879 437.461)" fill="white"/>
<rect x="405.595" y="442.435" width="99" height="63" transform="rotate(68 405.595 442.435)" fill="white"/>
<rect x="365.641" y="487.697" width="45" height="45" transform="rotate(-22 365.641 487.697)" fill="#FF2828"/>
<rect x="360.668" y="499.414" width="63" height="27" transform="rotate(-22 360.668 499.414)" fill="#FF2828"/>
<rect x="370.614" y="475.981" width="27" height="63" transform="rotate(-22 370.614 475.981)" fill="#FF2828"/>
<rect x="355.695" y="511.13" width="81" height="9" transform="rotate(-22 355.695 511.13)" fill="#FF2828"/>
<rect x="375.588" y="464.265" width="9" height="81" transform="rotate(-22 375.588 464.265)" fill="#FF2828"/>
<rect x="389.073" y="497.644" width="9" height="9" transform="rotate(-22 389.073 497.644)" fill="white"/>
<rect x="208.694" y="531.694" width="81" height="81" transform="rotate(-22 208.694 531.694)" fill="white"/>
<rect x="203.721" y="543.41" width="99" height="63" transform="rotate(-22 203.721 543.41)" fill="white"/>
<rect x="198.748" y="555.127" width="117" height="45" transform="rotate(-22 198.748 555.127)" fill="white"/>
<rect x="193.775" y="566.843" width="135" height="27" transform="rotate(-22 193.775 566.843)" fill="white"/>
<rect x="223.614" y="496.546" width="27" height="135" transform="rotate(-22 223.614 496.546)" fill="white"/>
<rect x="228.587" y="484.83" width="9" height="153" transform="rotate(-22 228.587 484.83)" fill="white"/>
<rect x="188.802" y="578.559" width="153" height="9" transform="rotate(-22 188.802 578.559)" fill="white"/>
<rect x="260.364" y="491.405" width="117" height="45" transform="rotate(68 260.364 491.405)" fill="white"/>
<rect x="272.08" y="496.378" width="99" height="63" transform="rotate(68 272.08 496.378)" fill="white"/>
<rect x="232.127" y="541.641" width="45" height="45" transform="rotate(-22 232.127 541.641)" fill="#FF2828"/>
<rect x="227.154" y="553.357" width="63" height="27" transform="rotate(-22 227.154 553.357)" fill="#FF2828"/>
<rect x="237.1" y="529.925" width="27" height="63" transform="rotate(-22 237.1 529.925)" fill="#FF2828"/>
<rect x="222.18" y="565.073" width="81" height="9" transform="rotate(-22 222.18 565.073)" fill="#FF2828"/>
<rect x="242.073" y="518.209" width="9" height="81" transform="rotate(-22 242.073 518.209)" fill="#FF2828"/>
<rect x="255.559" y="551.587" width="9" height="9" transform="rotate(-22 255.559 551.587)" fill="white"/>
<rect x="283.628" y="452.885" width="27" height="27" transform="rotate(-22 283.628 452.885)" fill="white"/>
<rect x="288.602" y="441.169" width="9" height="45" transform="rotate(-22 288.602 441.169)" fill="white"/>
<rect x="278.655" y="464.601" width="45" height="9" transform="rotate(-22 278.655 464.601)" fill="white"/>
<rect x="295.344" y="457.858" width="9" height="9" transform="rotate(-22 295.344 457.858)" fill="#FF2828"/>
<rect x="229.685" y="319.371" width="27" height="27" transform="rotate(-22 229.685 319.371)" fill="white"/>
<rect x="234.658" y="307.654" width="9" height="45" transform="rotate(-22 234.658 307.654)" fill="white"/>
<rect x="224.712" y="331.087" width="45" height="9" transform="rotate(-22 224.712 331.087)" fill="white"/>
<rect x="241.401" y="324.344" width="9" height="9" transform="rotate(-22 241.401 324.344)" fill="#FF2828"/>
<rect x="175.742" y="185.856" width="27" height="27" transform="rotate(-22 175.742 185.856)" fill="white"/>
<rect x="180.715" y="174.14" width="9" height="45" transform="rotate(-22 180.715 174.14)" fill="white"/>
<rect x="170.768" y="197.572" width="45" height="9" transform="rotate(-22 170.768 197.572)" fill="white"/>
<rect x="187.458" y="190.829" width="9" height="9" transform="rotate(-22 187.458 190.829)" fill="#FF2828"/>
</svg>
