<svg width="97" height="33" viewBox="0 0 97 33" fill="none" xmlns="http://www.w3.org/2000/svg">
<path d="M7.68 28.96C9.09333 28.96 10.32 28.7733 11.36 28.4C12.4 28 13.16 27.2667 13.64 26.2L13.92 25.6L5.72 8.8C5.13333 7.49333 4.41333 6.46666 3.56 5.72C2.73333 4.94666 1.8 4.50667 0.76 4.4V3.6H4.76C6.22667 3.6 7.52 4 8.64 4.8C9.78667 5.6 10.6667 6.66667 11.28 8L16.8 19.28L23.88 3.6H26.48L16.24 26.2C15.68 27.5333 14.84 28.5733 13.72 29.32C12.6 30.04 11.2533 30.4 9.68 30.4H7.68V28.96ZM30.5266 8.8C30.5266 7.44 30.3399 6.44 29.9666 5.8C29.5932 5.13333 28.8466 4.8 27.7266 4.8H27.3266V3.6H32.1266C33.0866 3.6 33.8199 3.76 34.3266 4.08C34.8332 4.4 35.1932 4.93333 35.4066 5.68C35.6199 6.4 35.7266 7.44 35.7266 8.8V15.4H46.5266V3.6H51.7266V24.8C51.7266 26.16 51.9132 27.1733 52.2866 27.84C52.6599 28.48 53.4066 28.8 54.5266 28.8H54.9266V30H50.1266C49.1666 30 48.4332 29.8533 47.9266 29.56C47.4199 29.24 47.0599 28.72 46.8466 28C46.6332 27.2533 46.5266 26.1867 46.5266 24.8V17.2H35.7266V30H30.5266V8.8ZM64.7956 5.4H61.9556C60.4623 5.4 59.3156 5.77333 58.5156 6.52C57.7423 7.26667 57.3556 8.49333 57.3556 10.2H56.1556V6.8C56.1556 4.66667 57.289 3.6 59.5556 3.6H78.3556V5.4H69.9956V30H64.7956V5.4Z" fill="white"/>
<circle cx="93" cy="25" r="4" fill="white"/>
<circle cx="89" cy="16" r="4" fill="white"/>
<circle cx="85" cy="7" r="4" fill="white"/>
</svg>
