<svg width="351" height="243" viewBox="0 0 351 243" fill="none" xmlns="http://www.w3.org/2000/svg">
<rect x="288" y="18" width="45" height="45" fill="#FF2828"/>
<rect x="279" y="27" width="63" height="27" fill="#FF2828"/>
<rect x="297" y="9" width="27" height="63" fill="#FF2828"/>
<rect x="270" y="36" width="81" height="9" fill="#FF2828"/>
<rect x="306" width="9" height="81" fill="#FF2828"/>
<rect x="306" y="36" width="9" height="9" fill="white"/>
<rect x="234" y="72" width="45" height="45" fill="#FF2828"/>
<rect x="225" y="81" width="63" height="27" fill="#FF2828"/>
<rect x="243" y="63" width="27" height="63" fill="#FF2828"/>
<rect x="216" y="90" width="81" height="9" fill="#FF2828"/>
<rect x="252" y="54" width="9" height="81" fill="#FF2828"/>
<rect x="252" y="90" width="9" height="9" fill="white"/>
<rect x="180" y="126" width="45" height="45" fill="#FF2828"/>
<rect x="171" y="135" width="63" height="27" fill="#FF2828"/>
<rect x="189" y="117" width="27" height="63" fill="#FF2828"/>
<rect x="162" y="144" width="81" height="9" fill="#FF2828"/>
<rect x="198" y="108" width="9" height="81" fill="#FF2828"/>
<rect x="198" y="144" width="9" height="9" fill="white"/>
<rect x="234" y="180" width="45" height="45" fill="#FF2828"/>
<rect x="225" y="189" width="63" height="27" fill="#FF2828"/>
<rect x="243" y="171" width="27" height="63" fill="#FF2828"/>
<rect x="216" y="198" width="81" height="9" fill="#FF2828"/>
<rect x="252" y="162" width="9" height="81" fill="#FF2828"/>
<rect x="252" y="198" width="9" height="9" fill="white"/>
<rect x="288" y="126" width="45" height="45" fill="#FF2828"/>
<rect x="279" y="135" width="63" height="27" fill="#FF2828"/>
<rect x="297" y="117" width="27" height="63" fill="#FF2828"/>
<rect x="270" y="144" width="81" height="9" fill="#FF2828"/>
<rect x="306" y="108" width="9" height="81" fill="#FF2828"/>
<rect x="306" y="144" width="9" height="9" fill="white"/>
<rect x="72" y="18" width="45" height="45" fill="#FF2828"/>
<rect x="63" y="27" width="63" height="27" fill="#FF2828"/>
<rect x="81" y="9" width="27" height="63" fill="#FF2828"/>
<rect x="54" y="36" width="81" height="9" fill="#FF2828"/>
<rect x="90" width="9" height="81" fill="#FF2828"/>
<rect x="90" y="36" width="9" height="9" fill="white"/>
<rect x="126" y="72" width="45" height="45" fill="#FF2828"/>
<rect x="117" y="81" width="63" height="27" fill="#FF2828"/>
<rect x="135" y="63" width="27" height="63" fill="#FF2828"/>
<rect x="108" y="90" width="81" height="9" fill="#FF2828"/>
<rect x="144" y="54" width="9" height="81" fill="#FF2828"/>
<rect x="144" y="90" width="9" height="9" fill="white"/>
<rect x="72" y="126" width="45" height="45" fill="#FF2828"/>
<rect x="63" y="135" width="63" height="27" fill="#FF2828"/>
<rect x="81" y="117" width="27" height="63" fill="#FF2828"/>
<rect x="54" y="144" width="81" height="9" fill="#FF2828"/>
<rect x="90" y="108" width="9" height="81" fill="#FF2828"/>
<rect x="90" y="144" width="9" height="9" fill="white"/>
<rect x="18" y="72" width="45" height="45" fill="#FF2828"/>
<rect x="9" y="81" width="63" height="27" fill="#FF2828"/>
<rect x="27" y="63" width="27" height="63" fill="#FF2828"/>
<rect y="90" width="81" height="9" fill="#FF2828"/>
<rect x="36" y="54" width="9" height="81" fill="#FF2828"/>
<rect x="36" y="90" width="9" height="9" fill="white"/>
<rect x="126" y="180" width="45" height="45" fill="#FF2828"/>
<rect x="117" y="189" width="63" height="27" fill="#FF2828"/>
<rect x="135" y="171" width="27" height="63" fill="#FF2828"/>
<rect x="108" y="198" width="81" height="9" fill="#FF2828"/>
<rect x="144" y="162" width="9" height="81" fill="#FF2828"/>
<rect x="144" y="198" width="9" height="9" fill="white"/>
</svg>
